# xmcd
#
# Track frame offsets:
#	150
#	19869
#	37694
#	48427
#	69960
#	85385
#	99529
#	116025
#	135256
#	155086
#	166391
#	193638
#
# Disc length: 2758 seconds
#
# Revision: 1
# Processed by: cddbd v1.5.2PL0 Copyright (c) Steve Scherf et al.
# Submitted via: audiograbber 1.83.01
#
DISCID=950ac40c
DTITLE=George and Queen - City
DYEAR=2007
DGENRE=Indie/Folk
TTITLE0=Loose Like Legs
TTITLE1=High Street
TTITLE2=Didn't Mean it that Way
TTITLE3=Private Paradise
TTITLE4=Blue River
TTITLE5=Sister Girl
TTITLE6=Why Don't You?
TTITLE7=Go
TTITLE8=Red Blue
TTITLE9=Hello Little Town
TTITLE10=Powerlines
TTITLE11=Spoon Fork Knife Cross
EXTD=
EXTT0=
EXTT1=
EXTT2=
EXTT3=
EXTT4=
EXTT5=
EXTT6=
EXTT7=
EXTT8=
EXTT9=
EXTT10=
EXTT11=
PLAYORDER=
